<svg aria-hidden="true" style="width:0;height:0;position:absolute;overflow:hidden" xmlns="http://www.w3.org/2000/svg"><defs><symbol id="icon-cross" viewBox="0 0 30 32"><path d="m16.219 14.826 4.928-4.924a1.012 1.012 0 0 0-1.43-1.428l-4.928 4.873-4.958-4.954a1.013 1.013 0 0 0-1.43 1.428l4.948 5.005-4.846 4.782a1.002 1.002 0 0 0-.284 1.139 1.014 1.014 0 0 0 1.714.29l4.836-4.833 4.806 4.802a1.013 1.013 0 0 0 1.43-1.428l-4.786-4.751z"/></symbol><symbol id="icon-frame" viewBox="0 0 32 32"><path fill="none" stroke="#ff705d" style="stroke:var(--color1,#ff705d)" stroke-linejoin="round" stroke-linecap="round" stroke-width="2.286" d="M16 11.429v6.857M16.002 26.286a1.143 1.143 0 1 0 0-2.287 1.143 1.143 0 0 0 0 2.287z"/><path fill="none" stroke="#ff705d" style="stroke:var(--color1,#ff705d)" stroke-linejoin="round" stroke-linecap="round" stroke-width="2.286" d="M18.036 2.4a2.286 2.286 0 0 0-4.068 0L1.397 27.543a2.281 2.281 0 0 0 .094 2.224 2.287 2.287 0 0 0 1.941 1.09h25.143a2.28 2.28 0 0 0 1.941-1.09 2.292 2.292 0 0 0 .093-2.224L18.038 2.4z"/></symbol><symbol id="icon-logo" viewBox="0 0 32 32"><path fill="#ffe550" style="fill:var(--color2,#ffe550)" d="M13.557 6.456c1.012-1.982 3.84-1.982 4.852 0l1.281 2.51a2.726 2.726 0 0 0 1.999 1.453l2.775.441c2.198.35 3.073 3.049 1.499 4.625l-1.98 1.983a2.73 2.73 0 0 0-.765 2.356l.437 2.773c.347 2.2-1.942 3.868-3.925 2.859l-2.513-1.278a2.722 2.722 0 0 0-2.467 0l-2.513 1.278c-1.983 1.009-4.272-.659-3.925-2.859l.437-2.773a2.731 2.731 0 0 0-.765-2.356l-1.98-1.983c-1.574-1.576-.699-4.275 1.499-4.625l2.775-.441a2.728 2.728 0 0 0 1.999-1.453l1.281-2.51z"/><path fill="#bbf330" style="fill:var(--color3,#bbf330)" d="M16 32C7.163 32 0 24.837 0 16S7.163 0 16 0s16 7.163 16 16-7.163 16-16 16zm0-1.706c7.899 0 14.297-6.402 14.297-14.294S23.899 1.706 16 1.706 1.703 8.108 1.703 16 8.101 30.294 16 30.294z"/></symbol><symbol id="icon-menu" viewBox="0 0 43 32"><path fill="#7eb101" style="fill:var(--color4,#7eb101)" d="M.592 3.556a2.073 2.073 0 0 1 2.074-2.074h37.333a2.075 2.075 0 0 1 0 4.148H2.666A2.073 2.073 0 0 1 .592 3.556zm0 12.51a2.073 2.073 0 0 1 2.074-2.074h37.333a2.075 2.075 0 0 1 0 4.148H2.666a2.075 2.075 0 0 1-2.074-2.074zm2.074 10.437a2.073 2.073 0 0 0-1.467 3.541c.389.389.917.607 1.467.607h37.333A2.075 2.075 0 1 0 40 26.503H2.667z"/></symbol><symbol id="icon-rocket" viewBox="0 0 32 32"><path fill="#7eb101" style="fill:var(--color4,#7eb101)" d="m4.838 13.295 4.038 1.714c.457-.914.946-1.816 1.467-2.705s1.073-1.74 1.657-2.552l-3.01-.61-4.152 4.152zm5.867 3.086 5.067 5.067c1.448-.66 2.806-1.41 4.076-2.248s2.298-1.651 3.086-2.438c2.057-2.057 3.568-4.165 4.533-6.324s1.486-4.597 1.562-7.314c-2.718.076-5.156.597-7.314 1.562s-4.267 2.476-6.324 4.533c-.787.787-1.6 1.816-2.438 3.086s-1.587 2.629-2.248 4.076zm8.724-3.657c-.508-.508-.762-1.137-.762-1.886s.254-1.378.762-1.886 1.136-.762 1.886-.762c.749 0 1.378.254 1.886.762s.762 1.136.762 1.886c0 .749-.254 1.378-.762 1.886s-1.136.762-1.886.762-1.378-.254-1.886-.762zm-.572 14.59 4.152-4.152-.61-3.009c-.813.584-1.664 1.136-2.552 1.657s-1.791 1.009-2.705 1.467l1.714 4.038zM31.276.876c.229 3.454-.203 6.603-1.295 9.448s-2.895 5.524-5.41 8.038l-.152.152.838 4.191c.076.381.057.749-.057 1.105s-.311.673-.59.952l-6.514 6.552-3.238-7.543-6.476-6.476-7.543-3.238 6.552-6.514c.279-.279.597-.476.952-.59s.724-.133 1.105-.057l4.19.838c.025-.025.051-.044.076-.057s.051-.032.076-.057c2.514-2.514 5.194-4.324 8.038-5.429S27.822.648 31.276.877zM3.39 21.905c.889-.889 1.975-1.34 3.257-1.352s2.368.425 3.257 1.314c.889.889 1.327 1.974 1.314 3.257s-.463 2.368-1.352 3.257c-.66.66-1.683 1.206-3.067 1.638s-3.46.838-6.229 1.219c.381-2.768.781-4.851 1.2-6.248s.959-2.425 1.619-3.086zm1.6 1.638c-.356.381-.673.978-.952 1.791s-.521 1.854-.724 3.124c1.27-.203 2.311-.444 3.124-.724s1.41-.597 1.79-.952c.483-.432.73-.971.743-1.619s-.21-1.213-.667-1.695c-.483-.457-1.048-.679-1.695-.667s-1.187.26-1.619.743z"/></symbol><symbol id="icon-star" viewBox="0 0 34 32"><path fill="#ffe550" style="fill:var(--color2,#ffe550)" d="M15.421 1.037c.584-1.383 2.575-1.383 3.159 0l3.449 8.164a1.71 1.71 0 0 0 1.443 1.032l8.952.707c1.517.12 2.132 1.983.976 2.958l-6.821 5.752a1.67 1.67 0 0 0-.551 1.67l2.084 8.6c.353 1.457-1.257 2.609-2.556 1.828l-7.664-4.609a1.734 1.734 0 0 0-1.783 0l-7.664 4.609c-1.299.781-2.909-.371-2.556-1.828l2.084-8.6a1.67 1.67 0 0 0-.551-1.67L.601 13.898c-1.156-.975-.541-2.838.976-2.958l8.952-.707a1.71 1.71 0 0 0 1.443-1.032l3.449-8.164z"/></symbol><symbol id="icon-touch" viewBox="0 0 24 32"><path fill="#7eb101" style="fill:var(--color4,#7eb101)" d="M11.587.368c2.231 0 4.138.779 5.72 2.336s2.372 3.451 2.372 5.683c0 1.275-.276 2.477-.828 3.605s-1.33 2.084-2.336 2.869h-1.251v-1.839c.711-.564 1.257-1.251 1.637-2.06s.57-1.667.57-2.575c0-1.618-.576-2.992-1.729-4.12s-2.538-1.692-4.156-1.692c-1.618 0-3.004.564-4.156 1.692s-1.729 2.501-1.729 4.12c0 .907.19 1.766.57 2.575s.926 1.496 1.637 2.06v2.648c-1.373-.711-2.452-1.717-3.237-3.016S3.494 9.932 3.494 8.387c0-2.231.791-4.126 2.372-5.683S9.354.368 11.586.368zm-1.398 30.896a3.032 3.032 0 0 1-2.133-.883L.479 22.804l2.06-2.133c.343-.343.73-.607 1.159-.791s.877-.215 1.343-.092l2.869.662V8.459c0-1.03.356-1.9 1.067-2.611s1.582-1.067 2.612-1.067 1.9.356 2.611 1.067 1.067 1.582 1.067 2.611v6.326h.956c.123 0 .233.024.331.073s.208.098.331.147l5.444 2.648c.588.27 1.024.705 1.306 1.306s.362 1.22.239 1.857l-1.324 8.018c-.123.711-.466 1.293-1.03 1.747s-1.202.68-1.913.68h-9.416zm-.294-2.207h10.336l1.582-9.159-6.731-3.347h-2.023V8.459c0-.441-.135-.797-.405-1.067s-.625-.405-1.067-.405-.797.135-1.067.405c-.27.27-.405.625-.405 1.067v14.676l-5.664-1.214-.846.846 6.29 6.29zm10.335 0z"/></symbol><symbol id="icon-vector-left" viewBox="0 0 18 32"><path d="m.48 16.965 14.861 14.16a1.334 1.334 0 0 0 1.84 0l.016-.016a1.237 1.237 0 0 0 .382-.889 1.22 1.22 0 0 0-.382-.889L3.202 15.998 17.197 2.67a1.222 1.222 0 0 0 .282-1.373 1.231 1.231 0 0 0-.282-.405l-.016-.016a1.336 1.336 0 0 0-1.84 0L.48 15.036a1.331 1.331 0 0 0 0 1.93z"/></symbol><symbol id="icon-vector-right" viewBox="0 0 18 32"><path d="M17.653 15.035 2.792.875a1.334 1.334 0 0 0-1.84 0L.936.891a1.222 1.222 0 0 0-.282 1.373c.065.153.162.291.282.405l13.995 13.333L.936 29.33a1.212 1.212 0 0 0-.381.889 1.236 1.236 0 0 0 .381.889l.016.016a1.334 1.334 0 0 0 1.84 0l14.861-14.16a1.331 1.331 0 0 0 0-1.93z"/></symbol><symbol id="icon-vector-read-more" viewBox="0 0 19 32"><path d="M17.903 15.592a1.264 1.264 0 0 1 0 1.788L5.015 30.268a1.264 1.264 0 0 1-1.788 0l-.596-.596a1.264 1.264 0 0 1 0-1.788L14.03 16.486 2.631 5.087a1.264 1.264 0 0 1 0-1.788l.596-.596a1.264 1.264 0 0 1 1.788 0l12.888 12.888z"/></symbol></defs></svg>